╤û Encoded By .......:UnKnOwN                                                   ╤û
╤û Runtime ..........:1:58                                                      ╤û
╤û IMDb URL .........:http://www.imdb.com/title/tt0453562/                      ╤û
╤û Language .........:English                                                   ╤û
╤û File Size ........:1.27gb                                                    ╤û
╤û Release Date ......... 2011                                                  ╤û
╤û Source       ......... Always UnKnOwN                                        ╤û
╤û File Type    ......... Single AVI                                            ╤û
╤û PS3 Compatible ....... Go for It                                             ╤û
╤û Genre        ......... Sports/Drama                                          ╤û
╤û                                                                              ╤û
╤û                                                                              ╤û
╤û Video                                                                        ╤û
╤û  ID                               : 0                                        ╤û
╤û  Format                           : MPEG-4 Visual                            ╤û
╤û  Format profile                   : Advanced Simple@L5                       ╤û
╤û  Format settings, BVOP            : Yes                                      ╤û
╤û  Format settings, QPel            : No                                       ╤û
╤û  Format settings, GMC             : No warppoints                            ╤û
╤û  Format settings, Matrix          : Custom                                   ╤û
╤û  Codec ID                         : XVID                                     ╤û
╤û  Codec ID/Hint                    : XviD                                     ╤û
╤û  Duration                         : 1h 58mn                                  ╤û
╤û  Bit rate                         : 1432 Kbps                                ╤û
╤û  Width                            : 680pixels                                ╤û
╤û  Height                           : 348pixels                                ╤û
╤û  Display aspect ratio             : 1.9.5                                    ╤û
╤û  Frame rate                       : 29.997fps                                ╤û
╤û  Color space                      : YUV                                      ╤û
╤û  Chroma subsampling               : 4:2:0                                    ╤û
╤û  Bit depth                        : 8 bits                                   ╤û
╤û  Scan type                        : Progressive                              ╤û
╤û  Bits/(Pixel*Frame)               : 0.234                                    ╤û
╤û  Stream size                      : 892 MiB (86%)                            ╤û
╤û  Writing library                  : XviD 1.2.1 (UTC 2008-12-04)              ╤û
╤û                                                                              ╤û
╤û                                                                              ╤û
╤û Audio                                                                        ╤û
╤û ID                               : 1                                         ╤û
╤û Format                           : MP3                                       ╤û
╤û Format/Info                      : Version 1                                 ╤û
╤û Mode extension                   : AC3                                       ╤û
╤û Codec ID                         : 2000                                      ╤û
╤û Duration                         : 1h 58mn                                   ╤û
╤û Bit rate mode                    : Constant                                  ╤û
╤û Bit rate                         : 128Kbps                                   ╤û
╤û Channel(s)                       : 2channels                                 ╤û
╤û Channel positions                : Front: L R                                ╤û
╤û Sampling rate                    : 48.0 KHz                                  ╤û
╤û Bit depth                        : 16 bits                                   ╤û
╤û Stream size                      : 302 MiB                                   ╤û
╤û Alignment                        : Aligned on interleaves                    ╤û
╤û Interleave, duration             : 42 ms (1.00 video frame)                  ╤û
╤û Interleave, preload duration     : 512 ms                                    ╤û

Screens:
 
http://s17.postimg.org/war344igv/vlcsnap_2013_04_20_10h17m28s251.png  
http://s17.postimg.org/bmnubn7un/vlcsnap_2013_04_20_10h17m34s57.png  
http://s17.postimg.org/nku03a0zj/vlcsnap_2013_04_20_10h18m07s134.png  
http://s17.postimg.org/ylp58at8f/vlcsnap_2013_04_20_10h18m14s201.png 